<?xml version="1.0" encoding="UTF-8"?>
<svg version="1.1" xmlns="http://www.w3.org/2000/svg" width="16" height="16">
<path d="M0 0 C5.28 0 10.56 0 16 0 C16 5.28 16 10.56 16 16 C10.72 16 5.44 16 0 16 C0 10.72 0 5.44 0 0 Z " fill="#FAF0EF" transform="translate(0,0)"/>
<path d="M0 0 C-0.33 1.65 -0.66 3.3 -1 5 C-0.34 5.33 0.32 5.66 1 6 C0.01 6.99 -0.98 7.98 -2 9 C-2 8.34 -2 7.68 -2 7 C-2.66 7 -3.32 7 -4 7 C-3.67 5.35 -3.34 3.7 -3 2 C-3.99 2.495 -3.99 2.495 -5 3 C-5 4.98 -5 6.96 -5 9 C-1.95086772 10.01111093 -1.95086772 10.01111093 1 9 C1 6.69 1 4.38 1 2 C1.99 2 2.98 2 4 2 C4.42911461 7.23519826 4.42911461 7.23519826 4 10 C1.875 12.125 1.875 12.125 -1 13 C-6.2 11.8 -6.2 11.8 -8 10 C-8.50578972 4.77350625 -8.50578972 4.77350625 -8 2 C-4.92424881 -0.74323755 -3.96809386 -1.32269795 0 0 Z " fill="#CC4656" transform="translate(10,2)"/>
<path d="M0 0 C-0.33 1.65 -0.66 3.3 -1 5 C-0.34 5.33 0.32 5.66 1 6 C0.01 6.99 -0.98 7.98 -2 9 C-2 8.34 -2 7.68 -2 7 C-2.66 7 -3.32 7 -4 7 C-3.67 5.35 -3.34 3.7 -3 2 C-4.32 2.33 -5.64 2.66 -7 3 C-7.33 4.32 -7.66 5.64 -8 7 C-8.3125 4.6875 -8.3125 4.6875 -8 2 C-3.92125984 -1.30708661 -3.92125984 -1.30708661 0 0 Z " fill="#DC4F30" transform="translate(10,2)"/>
<path d="M0 0 C0.33 0 0.66 0 1 0 C1.33 2.64 1.66 5.28 2 8 C2.94875 8.309375 3.8975 8.61875 4.875 8.9375 C8 10 8 10 10 11 C9 12 9 12 6.71484375 12.09765625 C4.14322917 12.06510417 1.57161458 12.03255208 -1 12 C-0.67 8.04 -0.34 4.08 0 0 Z " fill="#F6EAEB" transform="translate(1,4)"/>
<path d="M0 0 C2.97 0 5.94 0 9 0 C6.37801226 2.15377564 4.35595828 3.40072174 1 4 C1 6.64 1 9.28 1 12 C0.67 12 0.34 12 0 12 C0 8.04 0 4.08 0 0 Z " fill="#FEFBF9" transform="translate(0,0)"/>
<path d="M0 0 C0.33 0 0.66 0 1 0 C1 3.63 1 7.26 1 11 C-0.98 11 -2.96 11 -5 11 C-4.67 10.01 -4.34 9.02 -4 8 C-1.9375 7.3125 -1.9375 7.3125 0 7 C0 4.69 0 2.38 0 0 Z " fill="#FDFCFC" transform="translate(15,5)"/>
<path d="M0 0 C0.33 0 0.66 0 1 0 C1.33 1.98 1.66 3.96 2 6 C3.98 6.66 5.96 7.32 8 8 C6.3125 9.1875 6.3125 9.1875 4 10 C1.25 8.625 1.25 8.625 -1 7 C-0.67 4.69 -0.34 2.38 0 0 Z " fill="#A13E77" transform="translate(3,5)"/>
</svg>
